<svg width="133" height="38" viewBox="0 0 133 38" fill="none" xmlns="http://www.w3.org/2000/svg">
<path d="M36.4338 30V7.07693H42.7296V24.5114H53.1257V30H36.4338ZM53.9638 24.8665C53.9638 23.7258 54.2759 22.7249 54.9001 21.8639C55.5243 20.9814 56.3853 20.2927 57.483 19.7976C58.6023 19.3026 59.8722 19.055 61.2928 19.055C61.96 19.055 62.5842 19.1088 63.1654 19.2165C63.768 19.3241 64.2846 19.4855 64.7151 19.7008V19.1842C64.7151 18.3878 64.4783 17.7959 64.0048 17.4085C63.5528 17.021 62.8102 16.8273 61.7771 16.8273C60.83 16.8273 59.9368 16.9887 59.0973 17.3116C58.2794 17.6129 57.4185 18.0649 56.5144 18.6676L54.7387 14.8579C55.8795 14.126 57.0741 13.5879 58.3225 13.2436C59.5924 12.8776 60.9484 12.6947 62.3905 12.6947C65.081 12.6947 67.1581 13.3081 68.6217 14.535C70.1069 15.7403 70.8494 17.5376 70.8494 19.9268V23.2199C70.8494 23.8011 70.9355 24.21 71.1077 24.4468C71.2799 24.662 71.5813 24.7912 72.0117 24.8342V30C71.5167 30.1076 71.0432 30.183 70.5911 30.226C70.1607 30.2906 69.7732 30.3229 69.4289 30.3229C68.3311 30.3229 67.4917 30.1291 66.9105 29.7417C66.3509 29.3328 65.985 28.7408 65.8128 27.966L65.6837 27.3525C64.9303 28.3211 64.0586 29.0637 63.0685 29.5803C62.0784 30.0753 61.0237 30.3229 59.9045 30.3229C58.7852 30.3229 57.7736 30.0861 56.8696 29.6126C55.9656 29.139 55.2553 28.4933 54.7387 27.6754C54.2221 26.836 53.9638 25.8997 53.9638 24.8665ZM63.9079 25.2862C64.1447 25.114 64.3384 24.9311 64.4891 24.7374C64.6398 24.5221 64.7151 24.3069 64.7151 24.0917V22.8325C64.3707 22.7034 63.9725 22.5957 63.5205 22.5096C63.09 22.4235 62.7026 22.3805 62.3582 22.3805C61.6264 22.3805 61.0022 22.5635 60.4856 22.9294C59.9906 23.2953 59.743 23.758 59.743 24.3177C59.743 24.619 59.8291 24.8988 60.0013 25.1571C60.1735 25.3939 60.4103 25.5876 60.7116 25.7382C61.013 25.8674 61.3573 25.932 61.7448 25.932C62.1107 25.932 62.4874 25.8782 62.8748 25.7705C63.2837 25.6414 63.6281 25.48 63.9079 25.2862ZM85.6569 30.3229C84.43 30.3229 83.3646 30.0861 82.4606 29.6126C81.5565 29.1175 80.857 28.4072 80.362 27.4817V36.8769H74.2276V13.0176H79.5548V15.5681C80.1575 14.6426 80.9001 13.9323 81.7825 13.4373C82.6866 12.9422 83.7735 12.6947 85.0434 12.6947C86.1842 12.6947 87.2281 12.9099 88.1752 13.3404C89.1222 13.7709 89.9509 14.3843 90.6612 15.1807C91.3715 15.9771 91.9204 16.9026 92.3078 17.9573C92.6952 19.012 92.8889 20.1743 92.8889 21.4442C92.8889 23.1446 92.5768 24.662 91.9526 25.9965C91.3284 27.331 90.4675 28.3857 89.3698 29.1606C88.2936 29.9354 87.0559 30.3229 85.6569 30.3229ZM83.526 25.1571C83.978 25.1571 84.387 25.0602 84.7529 24.8665C85.1403 24.6728 85.4739 24.4038 85.7537 24.0594C86.0335 23.715 86.2488 23.3168 86.3994 22.8648C86.5501 22.4128 86.6254 21.9285 86.6254 21.4119C86.6254 20.8738 86.5394 20.3895 86.3672 19.959C86.2165 19.5286 85.9905 19.1627 85.6892 18.8613C85.3878 18.5385 85.0327 18.2909 84.6237 18.1187C84.2148 17.9466 83.7628 17.8605 83.2677 17.8605C82.9879 17.8605 82.7081 17.9035 82.4283 17.9896C82.17 18.0542 81.9225 18.1618 81.6857 18.3125C81.4489 18.4416 81.2122 18.6138 80.9754 18.829C80.7602 19.0443 80.5557 19.3026 80.362 19.6039V22.5419C80.5557 23.037 80.814 23.489 81.1368 23.8979C81.4812 24.2854 81.8579 24.5975 82.2668 24.8342C82.6758 25.0495 83.0955 25.1571 83.526 25.1571ZM106.561 30.3229C105.334 30.3229 104.268 30.0861 103.364 29.6126C102.46 29.1175 101.761 28.4072 101.266 27.4817V36.8769H95.1316V13.0176H100.459V15.5681C101.061 14.6426 101.804 13.9323 102.686 13.4373C103.59 12.9422 104.677 12.6947 105.947 12.6947C107.088 12.6947 108.132 12.9099 109.079 13.3404C110.026 13.7709 110.855 14.3843 111.565 15.1807C112.275 15.9771 112.824 16.9026 113.212 17.9573C113.599 19.012 113.793 20.1743 113.793 21.4442C113.793 23.1446 113.481 24.662 112.857 25.9965C112.232 27.331 111.371 28.3857 110.274 29.1606C109.197 29.9354 107.96 30.3229 106.561 30.3229ZM104.43 25.1571C104.882 25.1571 105.291 25.0602 105.657 24.8665C106.044 24.6728 106.378 24.4038 106.658 24.0594C106.937 23.715 107.153 23.3168 107.303 22.8648C107.454 22.4128 107.529 21.9285 107.529 21.4119C107.529 20.8738 107.443 20.3895 107.271 19.959C107.12 19.5286 106.894 19.1627 106.593 18.8613C106.292 18.5385 105.937 18.2909 105.528 18.1187C105.119 17.9466 104.667 17.8605 104.172 17.8605C103.892 17.8605 103.612 17.9035 103.332 17.9896C103.074 18.0542 102.826 18.1618 102.59 18.3125C102.353 18.4416 102.116 18.6138 101.879 18.829C101.664 19.0443 101.46 19.3026 101.266 19.6039V22.5419C101.46 23.037 101.718 23.489 102.041 23.8979C102.385 24.2854 102.762 24.5975 103.171 24.8342C103.58 25.0495 103.999 25.1571 104.43 25.1571ZM115.307 31.7112C115.802 31.8834 116.254 32.0125 116.663 32.0986C117.094 32.2062 117.481 32.26 117.826 32.26C118.278 32.26 118.654 32.1739 118.956 32.0017C119.257 31.8511 119.494 31.6035 119.666 31.2592C119.838 30.9148 119.946 30.4951 119.989 30L113.822 13.0176H120.118L123.347 23.7042L125.962 13.0176H131.676L125.929 32.034C125.607 33.1317 125.079 34.0896 124.347 34.9075C123.616 35.7469 122.744 36.3926 121.732 36.8446C120.721 37.3182 119.634 37.5549 118.471 37.5549C117.933 37.5549 117.395 37.5011 116.857 37.3935C116.34 37.3074 115.824 37.1567 115.307 36.9415V31.7112Z" fill="white"/>
<path d="M23.4192 25.8514C22.9538 24.5239 21.869 23.8511 20.8218 23.2006C19.9106 22.6341 19.0501 22.0989 18.4873 21.1379C16.9361 18.476 16.084 16.8698 13.5427 16.8698C11.0014 16.8698 10.1467 18.4765 8.59178 21.1374C8.02851 22.1005 7.16378 22.6368 6.25144 23.2043C5.20424 23.8553 4.1216 24.5265 3.65459 25.8514C3.47288 26.3291 3.38142 26.8365 3.38486 27.3476C3.38486 29.5023 5.10111 31.2556 7.00247 31.2556C8.90383 31.2556 11.4087 30.2967 13.548 30.2967C15.6874 30.2967 18.1573 31.2556 20.0824 31.2556C22.0076 31.2556 23.6942 29.5023 23.6942 27.3476C23.6957 26.8361 23.6025 26.3288 23.4192 25.8514Z" fill="white"/>
<path d="M3.80798 21.9471C5.44373 21.9471 6.76976 20.2422 6.76976 18.1391C6.76976 16.036 5.44373 14.3311 3.80798 14.3311C2.17223 14.3311 0.846191 16.036 0.846191 18.1391C0.846191 20.2422 2.17223 21.9471 3.80798 21.9471Z" fill="white"/>
<path d="M9.73156 16.8697C11.3673 16.8697 12.6933 15.1648 12.6933 13.0617C12.6933 10.9586 11.3673 9.25372 9.73156 9.25372C8.09581 9.25372 6.76978 10.9586 6.76978 13.0617C6.76978 15.1648 8.09581 16.8697 9.73156 16.8697Z" fill="white"/>
<path d="M17.3475 16.8697C18.9833 16.8697 20.3093 15.1648 20.3093 13.0617C20.3093 10.9586 18.9833 9.25372 17.3475 9.25372C15.7118 9.25372 14.3857 10.9586 14.3857 13.0617C14.3857 15.1648 15.7118 16.8697 17.3475 16.8697Z" fill="white"/>
<path d="M23.2711 21.9471C24.9069 21.9471 26.2329 20.2422 26.2329 18.1391C26.2329 16.036 24.9069 14.3311 23.2711 14.3311C21.6354 14.3311 20.3093 16.036 20.3093 18.1391C20.3093 20.2422 21.6354 21.9471 23.2711 21.9471Z" fill="white"/>
</svg>
