<svg width="77" height="77" viewBox="0 0 77 77" fill="none" xmlns="http://www.w3.org/2000/svg">
<path d="M66.593 54.4143C65.2695 50.6395 62.185 48.7266 59.2073 46.8768C56.6161 45.2661 54.1692 43.7441 52.569 41.0115C48.1581 33.4424 45.7353 28.875 38.509 28.875C31.2828 28.875 28.8524 33.4439 24.431 41.01C22.8293 43.7486 20.3704 45.2736 17.7762 46.8873C14.7984 48.7386 11.7199 50.6471 10.392 54.4143C9.8753 55.7728 9.61523 57.2155 9.62501 58.6689C9.62501 64.7958 14.5052 69.7812 19.9117 69.7812C25.3183 69.7812 32.4408 67.0547 38.5241 67.0547C44.6074 67.0547 51.6306 69.7812 57.1048 69.7812C62.579 69.7812 67.375 64.7958 67.375 58.6689C67.3793 57.2146 67.1141 55.7721 66.593 54.4143Z" fill="white"/>
<path d="M10.8281 43.3125C15.4794 43.3125 19.25 38.4646 19.25 32.4844C19.25 26.5042 15.4794 21.6562 10.8281 21.6562C6.17685 21.6562 2.40625 26.5042 2.40625 32.4844C2.40625 38.4646 6.17685 43.3125 10.8281 43.3125Z" fill="white"/>
<path d="M27.6719 28.875C32.3231 28.875 36.0938 24.0271 36.0938 18.0469C36.0938 12.0667 32.3231 7.21875 27.6719 7.21875C23.0206 7.21875 19.25 12.0667 19.25 18.0469C19.25 24.0271 23.0206 28.875 27.6719 28.875Z" fill="white"/>
<path d="M49.3281 28.875C53.9794 28.875 57.75 24.0271 57.75 18.0469C57.75 12.0667 53.9794 7.21875 49.3281 7.21875C44.6769 7.21875 40.9062 12.0667 40.9062 18.0469C40.9062 24.0271 44.6769 28.875 49.3281 28.875Z" fill="white"/>
<path d="M66.1719 43.3125C70.8231 43.3125 74.5938 38.4646 74.5938 32.4844C74.5938 26.5042 70.8231 21.6562 66.1719 21.6562C61.5206 21.6562 57.75 26.5042 57.75 32.4844C57.75 38.4646 61.5206 43.3125 66.1719 43.3125Z" fill="white"/>
</svg>
